<svg width="23" height="23" viewBox="0 0 23 23" fill="none" xmlns="http://www.w3.org/2000/svg">
<g clip-path="url(#clip0)">
<path d="M23 11.5C23 5.14873 17.8513 0 11.5 0C5.14873 0 0 5.14873 0 11.5C0 17.8513 5.14873 23 11.5 23C17.8513 23 23 17.8513 23 11.5Z" fill="black"/>
<path fill-rule="evenodd" clip-rule="evenodd" d="M15.0566 22.4387C13.9365 22.803 12.7411 23 11.5 23C10.258 23 9.06191 22.8028 7.94113 22.438C8.45887 22.5001 8.65016 22.163 8.65016 21.8719C8.65016 21.7452 8.648 21.5218 8.64508 21.2228C8.64177 20.8769 8.63741 20.4299 8.63435 19.9149C5.43519 20.6103 4.76028 18.3721 4.76028 18.3721C4.23775 17.043 3.48378 16.6891 3.48378 16.6891C2.43944 15.9748 3.56284 15.9893 3.56284 15.9893C4.71644 16.0706 5.32378 17.1753 5.32378 17.1753C6.35016 18.934 8.0155 18.4262 8.671 18.1312C8.77522 17.3876 9.07278 16.8804 9.40125 16.5927C6.84753 16.3022 4.163 15.3154 4.163 10.9057C4.163 9.64911 4.61078 8.62211 5.34678 7.81721C5.22819 7.52602 4.83359 6.35647 5.45891 4.77195C5.45891 4.77195 6.42491 4.46264 8.62141 5.95152C9.53925 5.69613 10.5225 5.56896 11.5007 5.56378C12.4775 5.56877 13.4615 5.69613 14.38 5.95152C16.5751 4.46264 17.5389 4.77195 17.5389 4.77195C18.1664 6.35647 17.7718 7.52602 17.6532 7.81721C18.3907 8.62211 18.8356 9.64911 18.8356 10.9057C18.8356 15.3261 16.1467 16.2994 13.5851 16.5841C13.9977 16.9394 14.3657 17.6414 14.3657 18.7153C14.3657 19.744 14.3592 20.6396 14.355 21.2331C14.3529 21.5271 14.3513 21.747 14.3513 21.8721C14.3513 22.1645 14.538 22.5023 15.0566 22.4387Z" fill="white"/>
</g>
<defs>
<clipPath id="clip0">
<rect width="23" height="23" fill="white"/>
</clipPath>
</defs>
</svg>
