<svg width="20" height="20" viewBox="0 0 20 20" fill="none" xmlns="http://www.w3.org/2000/svg">
<path fill-rule="evenodd" clip-rule="evenodd" d="M10.2742 0.153402C8.36077 0.126089 6.4317 0.659702 4.75021 1.78318C0.906782 4.35135 -0.594241 9.30036 1.17471 13.571C2.94364 17.8415 7.50238 20.2775 12.036 19.3757C16.5696 18.4739 19.8496 14.4776 19.8496 9.85508H19.8453V8.77695H11.2203V11.652H13.3765H15.5328H16.8411C16.1734 14.1544 14.1401 16.1291 11.4954 16.6551C8.2428 17.3021 5.00567 15.5721 3.73656 12.5083C2.46743 9.44432 3.53263 5.93208 6.29008 4.08964C9.04752 2.24719 12.6992 2.60799 15.0442 4.95298L17.0068 2.99186C15.3725 1.35757 13.2677 0.413943 11.0925 0.199684C10.8206 0.17309 10.5474 0.157303 10.2741 0.153709L10.2742 0.153402Z" fill="#EA4335"/>
<path fill-rule="evenodd" clip-rule="evenodd" d="M3.53143 11.9457L1.22778 13.6837C3.03047 17.8826 7.54307 20.2698 12.0357 19.3761C14.1123 18.963 15.9203 17.8955 17.2761 16.4212L15.1044 14.6847C14.1531 15.6622 12.9174 16.3727 11.4952 16.6556C8.24263 17.3026 5.0055 15.5725 3.73639 12.5087C3.65935 12.3227 3.5914 12.1346 3.53143 11.9457V11.9457Z" fill="#34A853"/>
<path fill-rule="evenodd" clip-rule="evenodd" d="M2.23117 4.23303C0.345191 6.89456 -0.131434 10.4177 1.17471 13.571C1.20461 13.6432 1.26677 13.7859 1.26677 13.7859C2.23992 13.224 2.95867 12.7304 3.64301 12.2648C3.6121 12.1826 3.58033 12.096 3.55959 12.0335C2.86529 9.94335 3.2141 7.6992 4.4103 5.94761C2.95867 4.8242 2.95867 4.8242 2.23117 4.23303Z" fill="#FBBC05"/>
<path fill-rule="evenodd" clip-rule="evenodd" d="M11.2201 8.77734V11.6523H13.3763H15.5326H16.8409C16.5323 12.8091 15.9222 13.8444 15.1044 14.6847L17.2761 16.4212C18.8803 14.6768 19.8493 12.3606 19.8493 9.85547H19.845V8.77734H11.22H11.2201Z" fill="#4788F4"/>
</svg>
