<svg width="288" height="353" viewBox="0 0 288 353" fill="none" xmlns="http://www.w3.org/2000/svg">
<path d="M116.378 246.097C106.266 246.097 98.003 254.36 98.003 264.472C98.003 274.584 106.266 282.847 116.378 282.847C126.49 282.847 134.753 274.584 134.753 264.472C134.753 254.36 126.49 246.097 116.378 246.097ZM98.003 163.41C81.1256 163.41 67.378 177.157 67.378 194.035C67.378 210.912 81.1256 224.66 98.003 224.66C114.88 224.66 128.628 210.912 128.628 194.035C128.628 177.157 114.88 163.41 98.003 163.41ZM79.628 288.972C72.8985 288.972 67.378 294.493 67.378 301.222C67.378 307.951 72.8985 313.472 79.628 313.472C86.3569 313.472 91.878 307.951 91.878 301.222C91.878 294.493 86.3569 288.972 79.628 288.972ZM98.003 322.66C92.9646 322.66 88.8155 326.81 88.8155 331.847C88.8155 336.885 92.9646 341.035 98.003 341.035C103.041 341.035 107.19 336.885 107.19 331.847C107.19 326.81 103.041 322.66 98.003 322.66ZM70.4405 224.66C65.4021 224.66 61.253 228.81 61.253 233.847C61.253 238.885 65.4021 243.035 70.4405 243.035C75.4783 243.035 79.628 238.885 79.628 233.847C79.628 228.81 75.4783 224.66 70.4405 224.66Z" fill="#3A3497"/>
<path d="M98.003 169.535C84.4361 169.535 73.503 180.467 73.503 194.035C73.503 207.602 84.4361 218.535 98.003 218.535C111.57 218.535 122.503 207.602 122.503 194.035C122.503 180.467 111.57 169.535 98.003 169.535Z" fill="#E225C4"/>
<path d="M116.378 252.222C123.179 252.222 128.628 257.671 128.628 264.472C128.628 271.274 123.179 276.722 116.378 276.722C109.576 276.722 104.128 271.274 104.128 264.472C104.128 257.671 109.576 252.222 116.378 252.222Z" fill="#50C3D1"/>
<path d="M79.628 295.097C83.047 295.097 85.753 297.803 85.753 301.222C85.753 304.641 83.047 307.347 79.628 307.347C76.2084 307.347 73.503 304.641 73.503 301.222C73.503 297.803 76.2084 295.097 79.628 295.097Z" fill="#E225C4"/>
<path d="M98.003 328.785C99.7302 328.785 101.065 330.119 101.065 331.847C101.065 333.575 99.7302 334.91 98.003 334.91C96.2751 334.91 94.9405 333.575 94.9405 331.847C94.9405 330.119 96.2751 328.785 98.003 328.785ZM70.4405 230.785C72.1677 230.785 73.503 232.119 73.503 233.847C73.503 235.575 72.1677 236.91 70.4405 236.91C68.7126 236.91 67.378 235.575 67.378 233.847C67.378 232.119 68.7126 230.785 70.4405 230.785Z" fill="#50C3D1"/>
<path d="M102.657 175.672C102.004 175.666 101.366 175.87 100.836 176.253C100.306 176.636 99.9128 177.179 99.7138 177.801C99.591 178.185 99.545 178.588 99.5784 178.989C99.6118 179.39 99.7244 179.781 99.9089 180.139C100.093 180.497 100.346 180.815 100.654 181.075C100.961 181.334 101.317 181.531 101.7 181.653C106.026 183.036 109.352 186.782 110.302 191.523C110.46 192.319 110.929 193.019 111.604 193.47C112.279 193.921 113.105 194.085 113.902 193.927C114.698 193.768 115.399 193.3 115.85 192.625C116.301 191.949 116.465 191.123 116.307 190.326C114.937 183.49 110.082 177.899 103.567 175.815C103.273 175.721 102.966 175.672 102.657 175.669V175.672Z" fill="#3A3497"/>
<path d="M116.836 343.525C116.836 344.338 117.158 345.116 117.733 345.691C118.307 346.265 119.086 346.588 119.898 346.588C120.71 346.588 121.49 346.265 122.064 345.691C122.638 345.116 122.961 344.338 122.961 343.525C122.961 342.713 122.638 341.934 122.064 341.36C121.49 340.786 120.71 340.463 119.898 340.463C119.086 340.463 118.307 340.786 117.733 341.36C117.158 341.934 116.836 342.713 116.836 343.525Z" fill="#3A3497"/>
<path opacity="0.3" d="M100.796 172.164C88.5544 172.164 78.8855 181.836 78.8855 194.078C78.8855 206.322 88.5544 215.989 100.796 215.989C102.122 215.989 103.279 215.496 104.536 215.275C94.1991 213.483 86.365 204.995 86.365 194.084C86.365 183.175 94.1991 174.696 104.536 172.892C103.284 172.646 102.129 172.179 100.796 172.179V172.164Z" fill="white"/>
<path opacity="0.3" d="M80.739 295.755C77.6845 295.755 75.272 298.169 75.272 301.223C75.272 304.278 77.6845 306.69 80.739 306.69C81.0698 306.69 81.3585 306.567 81.6721 306.512C79.0929 306.065 77.1382 303.947 77.1382 301.225C77.1382 298.503 79.0929 296.387 81.6721 295.937C81.3598 295.876 81.0716 295.759 80.739 295.759V295.755Z" fill="white"/>
<path opacity="0.2" d="M118.669 253.451C112.548 253.451 107.714 258.287 107.714 264.408C107.714 270.53 112.548 275.363 118.669 275.363C119.332 275.363 119.911 275.117 120.539 275.007C115.371 274.111 111.454 269.866 111.454 264.411C111.454 258.956 115.371 254.717 120.539 253.815C119.913 253.692 119.336 253.458 118.669 253.458V253.451Z" fill="white"/>
<path opacity="0.2" d="M98.5392 329.136C97.0089 329.136 95.8003 330.345 95.8003 331.876C95.8003 333.406 97.0089 334.614 98.5392 334.614C98.7049 334.614 98.8496 334.553 99.0067 334.525C97.7145 334.301 96.7353 333.24 96.7353 331.876C96.7353 330.513 97.7145 329.453 99.0067 329.227C98.8502 329.197 98.7058 329.138 98.5392 329.138V329.136Z" fill="white"/>
<path opacity="0.2" d="M70.9767 231.136C69.4464 231.136 68.2378 232.345 68.2378 233.876C68.2378 235.406 69.4464 236.614 70.9767 236.614C71.1424 236.614 71.2871 236.553 71.4442 236.525C70.152 236.301 69.1728 235.24 69.1728 233.876C69.1728 232.513 70.152 231.453 71.4442 231.227C71.2877 231.197 71.1433 231.138 70.9767 231.138V231.136Z" fill="white"/>
<g clip-path="url(#clip0)">
<path d="M212.537 81.0194C224.846 51.0098 210.498 16.7033 180.488 4.39368C150.478 -7.91598 116.172 6.43264 103.862 36.4422C91.5526 66.4518 105.901 100.758 135.911 113.068C165.92 125.378 200.227 111.029 212.537 81.0194Z" fill="url(#paint0_linear)"/>
<path d="M221.838 138.595C203.122 138.595 187.92 153.796 187.92 172.512C187.92 191.186 203.122 206.387 221.838 206.387C240.511 206.387 255.713 191.186 255.713 172.512C255.713 153.796 240.469 138.595 221.838 138.595ZM85.8297 104C71.5598 104 60 115.602 60 129.83C60 144.1 71.6022 155.659 85.8297 155.659C100.1 155.659 111.659 144.057 111.659 129.83C111.659 115.602 100.1 104 85.8297 104ZM160.948 208.885C146.297 208.885 134.398 220.784 134.398 235.393C134.398 250.044 146.297 261.942 160.948 261.942C175.556 261.942 187.497 250.044 187.497 235.393C187.455 220.784 175.556 208.885 160.948 208.885ZM147.525 175.519C155.993 175.519 162.938 168.574 162.938 160.063C162.938 151.594 155.993 144.65 147.525 144.65C139.013 144.65 132.111 151.594 132.111 160.063C132.069 168.574 139.013 175.519 147.525 175.519Z" fill="#081826"/>
</g>
<defs>
<linearGradient id="paint0_linear" x1="103.862" y1="36.4422" x2="212.537" y2="81.0194" gradientUnits="userSpaceOnUse">
<stop stop-color="#CE0FC6"/>
<stop offset="1" stop-color="#0F89CE" stop-opacity="0.73"/>
</linearGradient>
<clipPath id="clip0">
<rect width="271" height="271" fill="white" transform="translate(17)"/>
</clipPath>
</defs>
</svg>
