<?xml version="1.0" encoding="UTF-8"?>
<svg xmlns="http://www.w3.org/2000/svg" xmlns:xlink="http://www.w3.org/1999/xlink" width="375pt" height="374.999991pt" viewBox="0 0 375 374.999991" version="1.2">
<defs>
<clipPath id="clip1">
  <path d="M 258 46.242188 L 330 46.242188 L 330 60 L 258 60 Z M 258 46.242188 "/>
</clipPath>
<clipPath id="clip2">
  <path d="M 290 46.242188 L 330 46.242188 L 330 109 L 290 109 Z M 290 46.242188 "/>
</clipPath>
<clipPath id="clip3">
  <path d="M 258 46.242188 L 299 46.242188 L 299 109 L 258 109 Z M 258 46.242188 "/>
</clipPath>
<clipPath id="clip4">
  <path d="M 110 154 L 337.789062 154 L 337.789062 301.242188 L 110 301.242188 Z M 110 154 "/>
</clipPath>
</defs>
<g id="surface1">
<path style=" stroke:none;fill-rule:nonzero;fill:rgb(100%,100%,100%);fill-opacity:1;" d="M 153.78125 117.769531 C 154.167969 117.769531 154.554688 117.824219 154.933594 117.929688 C 156.03125 118.238281 156.9375 118.953125 157.496094 119.941406 C 158.054688 120.933594 158.191406 122.082031 157.890625 123.15625 L 148.976562 154.195312 C 148.464844 156.023438 146.78125 157.300781 144.882812 157.300781 C 144.496094 157.300781 144.105469 157.25 143.730469 157.140625 L 124.40625 151.726562 C 124.132812 151.648438 123.855469 151.613281 123.578125 151.613281 C 122.859375 151.613281 122.15625 151.863281 121.59375 152.335938 C 120.816406 152.996094 120.410156 153.992188 120.515625 155.007812 C 121.066406 160.316406 120.574219 166.148438 119.046875 172.34375 C 119.039062 172.371094 119.035156 172.398438 119.027344 172.425781 L 112.414062 202.765625 C 112.117188 204.125 112.769531 205.511719 114.003906 206.152344 L 142.867188 221.101562 C 142.988281 221.164062 143.113281 221.222656 143.242188 221.265625 C 146.699219 222.507812 148.503906 226.324219 147.265625 229.78125 C 147.175781 230.027344 147.121094 230.277344 147.097656 230.539062 L 143.539062 269.238281 C 142.507812 271.699219 140.085938 273.324219 137.398438 273.324219 C 136.636719 273.324219 135.878906 273.191406 135.152344 272.933594 C 131.695312 271.691406 129.890625 267.871094 131.128906 264.417969 C 131.210938 264.1875 131.265625 263.945312 131.292969 263.703125 L 134.402344 234.28125 C 134.550781 232.863281 133.703125 231.527344 132.355469 231.054688 C 120.183594 226.800781 106.441406 221.84375 104.5625 220.902344 C 104.054688 220.558594 103.453125 220.375 102.839844 220.375 C 102.667969 220.375 102.492188 220.390625 102.320312 220.417969 C 101.371094 220.582031 100.554688 221.179688 100.109375 222.03125 L 84.960938 251.140625 C 84.863281 251.328125 84.785156 251.523438 84.726562 251.726562 C 83.925781 254.589844 81.289062 256.589844 78.324219 256.589844 C 77.714844 256.589844 77.109375 256.503906 76.519531 256.339844 L 38.742188 245.753906 C 35.210938 244.761719 33.140625 241.078125 34.128906 237.542969 C 34.929688 234.679688 37.566406 232.679688 40.535156 232.679688 C 41.144531 232.679688 41.75 232.765625 42.339844 232.929688 L 70.734375 240.890625 C 71.011719 240.96875 71.292969 241.003906 71.566406 241.003906 C 72.902344 241.003906 74.132812 240.128906 74.519531 238.78125 L 83.71875 206.964844 C 83.867188 206.441406 84.082031 205.9375 84.378906 205.429688 C 84.597656 205.050781 84.734375 204.625 84.777344 204.1875 L 85.023438 201.65625 C 85.039062 201.484375 85.042969 201.316406 85.03125 201.148438 L 81.792969 153.90625 C 81.730469 152.929688 81.199219 152.042969 80.371094 151.515625 C 79.871094 151.203125 79.300781 151.039062 78.726562 151.039062 C 78.34375 151.039062 77.960938 151.109375 77.597656 151.253906 L 62.375 157.242188 C 61.613281 157.539062 61.003906 158.132812 60.679688 158.878906 C 60.355469 159.628906 60.339844 160.476562 60.640625 161.238281 L 66.976562 177.230469 C 67.84375 179.414062 66.765625 181.890625 64.585938 182.753906 C 64.078125 182.957031 63.554688 183.054688 63.019531 183.054688 C 61.261719 183.054688 59.707031 182 59.058594 180.363281 L 50.023438 157.554688 C 49.601562 156.496094 49.621094 155.339844 50.074219 154.296875 C 50.523438 153.253906 51.355469 152.449219 52.40625 152.03125 L 86.476562 138.617188 C 86.625 138.558594 86.808594 138.5 87.050781 138.441406 C 87.132812 138.421875 87.210938 138.398438 87.289062 138.375 C 88.199219 138.070312 89.144531 137.917969 90.09375 137.917969 C 90.378906 137.917969 90.667969 137.929688 90.953125 137.957031 L 112.691406 140.078125 C 113.316406 140.136719 116.769531 140.75 117.574219 140.972656 L 138.960938 146.96875 C 139.242188 147.046875 139.519531 147.082031 139.796875 147.082031 C 141.132812 147.082031 142.359375 146.207031 142.75 144.859375 L 149.683594 120.878906 C 150.199219 119.046875 151.882812 117.769531 153.78125 117.769531 M 153.78125 114.695312 C 150.578125 114.695312 147.628906 116.8125 146.722656 120.050781 L 139.796875 144.003906 L 118.40625 138.011719 C 117.398438 137.726562 113.789062 137.09375 112.992188 137.015625 L 91.253906 134.898438 C 90.863281 134.859375 90.480469 134.839844 90.097656 134.839844 C 88.785156 134.839844 87.515625 135.054688 86.320312 135.453125 C 85.996094 135.535156 85.671875 135.625 85.351562 135.75 L 51.28125 149.167969 C 47.515625 150.660156 45.671875 154.917969 47.164062 158.683594 L 56.203125 181.492188 C 57.34375 184.375 60.105469 186.128906 63.023438 186.128906 C 63.921875 186.128906 64.835938 185.960938 65.71875 185.613281 C 69.488281 184.117188 71.332031 179.859375 69.839844 176.09375 L 63.503906 160.101562 L 78.726562 154.113281 L 81.964844 201.355469 L 81.71875 203.886719 C 81.316406 204.578125 80.988281 205.320312 80.761719 206.121094 L 71.566406 237.925781 L 43.171875 229.96875 C 42.292969 229.722656 41.410156 229.601562 40.539062 229.601562 C 36.28125 229.601562 32.371094 232.414062 31.167969 236.710938 C 29.71875 241.890625 32.734375 247.261719 37.914062 248.710938 L 75.6875 259.296875 C 76.570312 259.542969 77.453125 259.660156 78.324219 259.660156 C 82.578125 259.660156 86.488281 256.851562 87.691406 252.554688 L 102.84375 223.445312 C 103.785156 224.324219 131.34375 233.953125 131.34375 233.953125 L 128.234375 263.375 C 126.417969 268.433594 129.054688 274.007812 134.113281 275.820312 C 135.199219 276.210938 136.308594 276.394531 137.398438 276.394531 C 141.394531 276.394531 145.140625 273.917969 146.5625 269.941406 L 150.160156 230.816406 C 151.976562 225.753906 149.34375 220.183594 144.28125 218.367188 L 115.421875 203.417969 L 122.035156 173.074219 C 123.765625 166.046875 124.113281 159.867188 123.578125 154.6875 L 142.898438 160.101562 C 143.558594 160.285156 144.226562 160.375 144.882812 160.375 C 148.085938 160.375 151.03125 158.257812 151.9375 155.019531 L 160.847656 124.003906 C 161.941406 120.105469 159.664062 116.058594 155.765625 114.96875 C 155.101562 114.785156 154.433594 114.695312 153.78125 114.695312 Z M 153.78125 114.695312 "/>
<path style=" stroke:none;fill-rule:nonzero;fill:rgb(100%,100%,100%);fill-opacity:1;" d="M 106.28125 94.59375 C 113.054688 94.59375 118.550781 99.898438 118.785156 106.675781 C 119.195312 118.492188 113.8125 128.679688 107.027344 128.914062 L 106.847656 128.917969 C 100.847656 128.917969 94.117188 117.933594 93.753906 107.546875 C 93.515625 100.648438 98.933594 94.839844 105.832031 94.597656 C 105.980469 94.59375 106.132812 94.59375 106.28125 94.59375 M 106.277344 91.515625 C 106.09375 91.515625 105.910156 91.519531 105.726562 91.523438 C 97.117188 91.824219 90.378906 99.042969 90.679688 107.652344 C 91.074219 118.957031 98.359375 131.996094 106.847656 131.996094 C 106.941406 131.996094 107.039062 131.992188 107.136719 131.988281 C 115.75 131.691406 122.339844 120.320312 121.859375 106.570312 C 121.566406 98.144531 114.644531 91.515625 106.277344 91.515625 Z M 106.277344 91.515625 "/>
<path style=" stroke:none;fill-rule:nonzero;fill:rgb(100%,100%,100%);fill-opacity:1;" d="M 106.753906 143.832031 C 105.53125 143.035156 104.367188 141.894531 104.414062 141.300781 L 104.636719 138.449219 C 104.652344 138.238281 104.6875 138.128906 104.703125 138.089844 C 104.707031 138.09375 104.710938 138.09375 104.71875 138.09375 C 104.765625 138.09375 104.925781 138.058594 105.242188 138.058594 C 105.636719 138.058594 106.074219 138.101562 106.542969 138.144531 L 107.839844 138.242188 C 108.46875 138.285156 109.414062 138.347656 109.679688 138.503906 C 109.667969 138.519531 109.6875 138.632812 109.667969 138.839844 L 109.445312 141.691406 C 109.398438 142.289062 108.074219 143.234375 106.753906 143.832031 Z M 106.753906 143.832031 "/>
<path style=" stroke:none;fill-rule:nonzero;fill:rgb(100%,100%,100%);fill-opacity:1;" d="M 106.089844 139.648438 C 106.191406 139.65625 106.296875 139.664062 106.40625 139.675781 L 107.070312 139.730469 L 107.734375 139.777344 C 107.835938 139.785156 107.941406 139.792969 108.050781 139.800781 L 107.9375 141.285156 C 107.742188 141.496094 107.347656 141.769531 106.890625 142.03125 C 106.488281 141.710938 106.136719 141.378906 105.972656 141.136719 L 106.089844 139.648438 M 105.242188 136.523438 C 104.046875 136.523438 103.21875 136.847656 103.101562 138.332031 L 102.878906 141.183594 C 102.703125 143.417969 106.617188 145.542969 106.617188 145.542969 C 106.617188 145.542969 110.804688 144.046875 110.980469 141.808594 L 111.203125 138.960938 C 111.371094 136.722656 109.539062 136.839844 107.308594 136.664062 C 106.554688 136.605469 105.851562 136.523438 105.242188 136.523438 Z M 105.242188 136.523438 "/>
<path style=" stroke:none;fill-rule:nonzero;fill:rgb(100%,100%,100%);fill-opacity:1;" d="M 89.832031 189.980469 C 97.347656 182.804688 102.992188 164.695312 105.789062 154.070312 C 105.914062 163.960938 105.074219 180.347656 98.871094 189 L 89.832031 194.40625 Z M 89.832031 189.980469 "/>
<path style=" stroke:none;fill-rule:nonzero;fill:rgb(100%,100%,100%);fill-opacity:1;" d="M 103.871094 165.949219 C 103.210938 173.890625 101.558594 182.417969 97.804688 187.847656 L 91.371094 191.691406 L 91.371094 190.617188 C 96.550781 185.308594 100.8125 175.183594 103.871094 165.949219 M 106.226562 145.683594 C 106.226562 145.683594 99.027344 179.902344 88.292969 189.300781 L 88.292969 197.113281 L 99.929688 190.160156 C 109.828125 176.808594 106.960938 145.75 106.960938 145.75 C 106.734375 145.84375 106.585938 145.894531 106.585938 145.894531 C 106.585938 145.894531 106.449219 145.820312 106.226562 145.683594 Z M 106.226562 145.683594 "/>
<path style=" stroke:none;fill-rule:nonzero;fill:rgb(100%,100%,100%);fill-opacity:1;" d="M 272.292969 57.707031 L 262.242188 47.660156 L 325.976562 47.722656 L 315.945312 57.75 Z M 272.292969 57.707031 "/>
<g clip-path="url(#clip1)" clip-rule="nonzero">
<path style=" stroke:none;fill-rule:nonzero;fill:rgb(100%,100%,100%);fill-opacity:1;" d="M 265.960938 49.203125 L 322.265625 49.257812 L 315.308594 56.210938 L 272.929688 56.171875 L 265.960938 49.203125 M 258.523438 46.117188 L 271.652344 59.242188 L 316.582031 59.289062 L 329.683594 46.1875 Z M 258.523438 46.117188 "/>
</g>
<path style=" stroke:none;fill-rule:nonzero;fill:rgb(100%,100%,100%);fill-opacity:1;" d="M 292.414062 102.746094 L 315.855469 60.265625 L 325.511719 51.8125 L 301.410156 106.863281 Z M 292.414062 102.746094 "/>
<g clip-path="url(#clip2)" clip-rule="nonzero">
<path style=" stroke:none;fill-rule:nonzero;fill:rgb(100%,100%,100%);fill-opacity:1;" d="M 321.339844 57.511719 L 300.628906 104.8125 L 294.5625 102.035156 L 317.070312 61.246094 L 321.339844 57.511719 M 329.683594 46.117188 L 329.691406 46.117188 Z M 329.683594 46.117188 L 314.636719 59.289062 L 290.265625 103.453125 L 302.191406 108.914062 Z M 329.683594 46.117188 "/>
</g>
<path style=" stroke:none;fill-rule:nonzero;fill:rgb(100%,100%,100%);fill-opacity:1;" d="M 262.566406 51.460938 L 273.214844 60.28125 L 296.046875 102.738281 L 287.03125 106.867188 Z M 262.566406 51.460938 "/>
<g clip-path="url(#clip3)" clip-rule="nonzero">
<path style=" stroke:none;fill-rule:nonzero;fill:rgb(100%,100%,100%);fill-opacity:1;" d="M 266.609375 56.808594 L 272 61.273438 L 293.917969 102.023438 L 287.808594 104.820312 L 266.609375 56.808594 M 258.523438 46.117188 L 286.253906 108.914062 L 298.179688 103.453125 L 274.425781 59.289062 Z M 258.523438 46.117188 "/>
</g>
<path style=" stroke:none;fill-rule:nonzero;fill:rgb(100%,100%,100%);fill-opacity:1;" d="M 292.832031 118.148438 C 284.09375 118.148438 276.988281 111.042969 276.988281 102.308594 C 276.988281 93.578125 284.09375 86.472656 292.832031 86.472656 C 301.570312 86.472656 308.675781 93.578125 308.675781 102.308594 C 308.675781 111.042969 301.570312 118.148438 292.832031 118.148438 Z M 292.832031 118.148438 "/>
<path style=" stroke:none;fill-rule:nonzero;fill:rgb(100%,100%,100%);fill-opacity:1;" d="M 292.832031 88.007812 C 300.71875 88.007812 307.136719 94.425781 307.136719 102.308594 C 307.136719 110.195312 300.71875 116.609375 292.832031 116.609375 C 284.941406 116.609375 278.527344 110.195312 278.527344 102.308594 C 278.527344 94.425781 284.941406 88.007812 292.832031 88.007812 M 292.832031 84.933594 C 283.230469 84.933594 275.449219 92.710938 275.449219 102.308594 C 275.449219 111.90625 283.230469 119.683594 292.832031 119.683594 C 302.429688 119.683594 310.214844 111.902344 310.214844 102.308594 C 310.214844 92.710938 302.429688 84.933594 292.832031 84.933594 Z M 292.832031 84.933594 "/>
<path style=" stroke:none;fill-rule:nonzero;fill:rgb(100%,100%,100%);fill-opacity:1;" d="M 302.183594 102.308594 C 302.183594 102.921875 302.121094 103.53125 302.003906 104.132812 C 301.882812 104.734375 301.707031 105.320312 301.46875 105.886719 C 301.234375 106.453125 300.949219 106.992188 300.605469 107.503906 C 300.265625 108.011719 299.878906 108.484375 299.441406 108.917969 C 299.007812 109.355469 298.535156 109.742188 298.027344 110.082031 C 297.515625 110.421875 296.976562 110.710938 296.410156 110.945312 C 295.839844 111.179688 295.257812 111.359375 294.65625 111.476562 C 294.050781 111.597656 293.445312 111.65625 292.832031 111.65625 C 292.214844 111.65625 291.609375 111.597656 291.003906 111.476562 C 290.402344 111.359375 289.820312 111.179688 289.25 110.945312 C 288.683594 110.710938 288.144531 110.421875 287.632812 110.082031 C 287.125 109.742188 286.652344 109.355469 286.21875 108.917969 C 285.78125 108.484375 285.394531 108.011719 285.054688 107.503906 C 284.714844 106.992188 284.425781 106.453125 284.191406 105.886719 C 283.953125 105.320312 283.777344 104.734375 283.65625 104.132812 C 283.539062 103.53125 283.476562 102.921875 283.476562 102.308594 C 283.476562 101.695312 283.539062 101.085938 283.65625 100.484375 C 283.777344 99.882812 283.953125 99.296875 284.191406 98.730469 C 284.425781 98.164062 284.714844 97.625 285.054688 97.113281 C 285.394531 96.605469 285.78125 96.132812 286.21875 95.699219 C 286.652344 95.265625 287.125 94.875 287.632812 94.535156 C 288.144531 94.195312 288.683594 93.90625 289.25 93.671875 C 289.820312 93.4375 290.402344 93.257812 291.003906 93.140625 C 291.609375 93.019531 292.214844 92.960938 292.832031 92.960938 C 293.445312 92.960938 294.050781 93.019531 294.65625 93.140625 C 295.257812 93.257812 295.839844 93.4375 296.410156 93.671875 C 296.976562 93.90625 297.515625 94.195312 298.027344 94.535156 C 298.535156 94.875 299.007812 95.265625 299.441406 95.699219 C 299.878906 96.132812 300.265625 96.605469 300.605469 97.113281 C 300.949219 97.625 301.234375 98.164062 301.46875 98.730469 C 301.707031 99.296875 301.882812 99.882812 302.003906 100.484375 C 302.121094 101.085938 302.183594 101.695312 302.183594 102.308594 Z M 302.183594 102.308594 "/>
<path style=" stroke:none;fill-rule:nonzero;fill:rgb(100%,100%,100%);fill-opacity:1;" d="M 292.832031 94.496094 C 297.140625 94.496094 300.644531 98 300.644531 102.308594 C 300.644531 106.613281 297.140625 110.117188 292.832031 110.117188 C 288.523438 110.117188 285.019531 106.613281 285.019531 102.308594 C 285.019531 98 288.523438 94.496094 292.832031 94.496094 M 292.832031 91.421875 C 286.816406 91.421875 281.941406 96.296875 281.941406 102.308594 C 281.941406 108.320312 286.816406 113.195312 292.832031 113.195312 C 298.84375 113.195312 303.722656 108.320312 303.722656 102.308594 C 303.722656 96.296875 298.84375 91.421875 292.832031 91.421875 Z M 292.832031 91.421875 "/>
<path style=" stroke:none;fill-rule:nonzero;fill:rgb(100%,100%,100%);fill-opacity:1;" d="M 293.546875 105.296875 C 293.320312 105.179688 293.078125 105.121094 292.832031 105.121094 C 292.585938 105.121094 292.339844 105.179688 292.113281 105.296875 L 290.582031 106.101562 L 290.875 104.394531 C 290.960938 103.894531 290.792969 103.386719 290.433594 103.035156 L 289.1875 101.824219 L 290.902344 101.574219 C 291.402344 101.5 291.835938 101.1875 292.0625 100.734375 L 292.832031 99.175781 L 293.597656 100.734375 C 293.824219 101.1875 294.257812 101.5 294.757812 101.574219 L 296.472656 101.824219 L 295.230469 103.035156 C 294.867188 103.386719 294.699219 103.894531 294.789062 104.394531 L 295.078125 106.105469 Z M 293.546875 105.296875 "/>
<path style=" stroke:none;fill-rule:nonzero;fill:rgb(100%,100%,100%);fill-opacity:1;" d="M 292.832031 102.253906 C 293.042969 102.460938 293.285156 102.636719 293.546875 102.773438 C 293.414062 103.039062 293.324219 103.324219 293.273438 103.613281 C 293.125 103.59375 292.976562 103.582031 292.828125 103.582031 C 292.679688 103.582031 292.535156 103.59375 292.386719 103.613281 C 292.335938 103.324219 292.246094 103.039062 292.113281 102.773438 C 292.378906 102.636719 292.621094 102.460938 292.832031 102.253906 M 292.832031 95.703125 L 290.683594 100.050781 L 285.882812 100.75 L 289.359375 104.136719 L 288.535156 108.914062 L 292.832031 106.65625 L 297.128906 108.914062 L 296.304688 104.136719 L 299.78125 100.75 L 294.980469 100.050781 Z M 292.832031 95.703125 "/>
<path style=" stroke:none;fill-rule:nonzero;fill:rgb(100%,100%,100%);fill-opacity:1;" d="M 293.582031 131.402344 C 292.730469 131.402344 292.042969 130.714844 292.042969 129.867188 L 292.042969 124.039062 C 292.042969 123.191406 292.730469 122.503906 293.582031 122.503906 C 294.433594 122.503906 295.121094 123.191406 295.121094 124.039062 L 295.121094 129.867188 C 295.121094 130.714844 294.433594 131.402344 293.582031 131.402344 Z M 293.582031 131.402344 "/>
<path style=" stroke:none;fill-rule:nonzero;fill:rgb(100%,100%,100%);fill-opacity:1;" d="M 269.46875 99.160156 L 263.640625 99.160156 C 262.789062 99.160156 262.101562 98.472656 262.101562 97.621094 C 262.101562 96.773438 262.789062 96.085938 263.640625 96.085938 L 269.46875 96.085938 C 270.320312 96.085938 271.007812 96.773438 271.007812 97.621094 C 271.007812 98.472656 270.316406 99.160156 269.46875 99.160156 Z M 269.46875 99.160156 "/>
<path style=" stroke:none;fill-rule:nonzero;fill:rgb(100%,100%,100%);fill-opacity:1;" d="M 323.445312 99.160156 L 317.621094 99.160156 C 316.769531 99.160156 316.082031 98.472656 316.082031 97.621094 C 316.082031 96.773438 316.769531 96.085938 317.621094 96.085938 L 323.445312 96.085938 C 324.296875 96.085938 324.984375 96.773438 324.984375 97.621094 C 324.984375 98.472656 324.296875 99.160156 323.445312 99.160156 Z M 323.445312 99.160156 "/>
<path style=" stroke:none;fill-rule:nonzero;fill:rgb(100%,100%,100%);fill-opacity:1;" d="M 271.839844 121.328125 C 271.445312 121.328125 271.050781 121.175781 270.75 120.878906 C 270.148438 120.277344 270.148438 119.300781 270.75 118.703125 L 274.871094 114.585938 C 275.472656 113.984375 276.445312 113.984375 277.046875 114.585938 C 277.648438 115.183594 277.648438 116.160156 277.046875 116.761719 L 272.925781 120.878906 C 272.625 121.175781 272.230469 121.328125 271.839844 121.328125 Z M 271.839844 121.328125 "/>
<path style=" stroke:none;fill-rule:nonzero;fill:rgb(100%,100%,100%);fill-opacity:1;" d="M 314.128906 121.328125 C 313.734375 121.328125 313.34375 121.175781 313.042969 120.878906 L 308.921875 116.761719 C 308.320312 116.160156 308.320312 115.1875 308.921875 114.585938 C 309.523438 113.984375 310.496094 113.984375 311.097656 114.585938 L 315.21875 118.703125 C 315.820312 119.304688 315.820312 120.277344 315.21875 120.878906 C 314.914062 121.175781 314.523438 121.328125 314.128906 121.328125 Z M 314.128906 121.328125 "/>
<path style=" stroke:none;fill-rule:nonzero;fill:rgb(100%,100%,100%);fill-opacity:1;" d="M 112.050781 300.3125 L 112.050781 284.710938 L 178.4375 284.710938 C 179.285156 284.710938 179.972656 284.023438 179.972656 283.175781 L 179.972656 220.613281 L 250.398438 220.613281 C 251.25 220.613281 251.9375 219.929688 251.9375 219.078125 L 251.9375 156.117188 L 336.050781 156.117188 L 336.050781 300.3125 Z M 112.050781 300.3125 "/>
<g clip-path="url(#clip4)" clip-rule="nonzero">
<path style=" stroke:none;fill-rule:nonzero;fill:rgb(100%,100%,100%);fill-opacity:1;" d="M 334.511719 157.65625 L 334.511719 298.773438 L 113.589844 298.773438 L 113.589844 286.25 L 178.4375 286.25 C 180.132812 286.25 181.511719 284.875 181.511719 283.175781 L 181.511719 222.152344 L 250.398438 222.152344 C 252.097656 222.152344 253.476562 220.777344 253.476562 219.078125 L 253.476562 157.65625 L 334.511719 157.65625 M 337.589844 154.578125 L 250.398438 154.578125 L 250.398438 219.078125 L 178.4375 219.078125 L 178.4375 283.175781 L 110.515625 283.175781 L 110.515625 301.851562 L 337.589844 301.851562 Z M 337.589844 154.578125 "/>
</g>
</g>
</svg>
