<svg id="visual" viewBox="0 0 1632 1050" width="1632" height="1050" xmlns="http://www.w3.org/2000/svg" xmlns:xlink="http://www.w3.org/1999/xlink" version="1.1"><rect x="0" y="0" width="1632" height="1050" fill="#002233"></rect><path d="M0 684L38.8 722.7C77.7 761.3 155.3 838.7 233 834.8C310.7 831 388.3 746 466 726.8C543.7 707.7 621.3 754.3 699.2 773.7C777 793 855 785 932.8 774.3C1010.7 763.7 1088.3 750.3 1166 765C1243.7 779.7 1321.3 822.3 1399 848.3C1476.7 874.3 1554.3 883.7 1593.2 888.3L1632 893L1632 1051L1593.2 1051C1554.3 1051 1476.7 1051 1399 1051C1321.3 1051 1243.7 1051 1166 1051C1088.3 1051 1010.7 1051 932.8 1051C855 1051 777 1051 699.2 1051C621.3 1051 543.7 1051 466 1051C388.3 1051 310.7 1051 233 1051C155.3 1051 77.7 1051 38.8 1051L0 1051Z" fill="#0066FF" stroke-linecap="round" stroke-linejoin="miter"></path></svg>